PathFileType	4	(X/Y/Z)	C:/Users/opensim2020/Desktop/walking_exp_matlab/subject06_walking19_straight_03.trc																																																																																																																																																	
DataRate	CameraRate	NumFrames	NumMarkers	Units	OrigDataRate	OrigDataStartFrame	OrigNumFrames																																																																																																																																													
100	100	8	49	mm	100	3267	358																																																																																																																																													
Frame#	Time	LFHD			RFHD			LBHD			RBHD			C7			T10			CLAV			STRN			RBAK			LSHO			LUPA			LELB			LFRM			LWRA			LWRB			LFIN			RSHO			RUPA			RELB			RFRM			RWRA			RWRB			RFIN			LASI			RASI			LPSI			RPSI			LTHI			LKNE			LTIB			LANK			LHEE			LTOE			RTHI			RKNE			RTIB			RANK			RHEE			RTOE			*39			*40			*41			*42			*43			*44			*45			*46			*47			*48		
		X1	Y1	Z1	X2	Y2	Z2	X3	Y3	Z3	X4	Y4	Z4	X5	Y5	Z5	X6	Y6	Z6	X7	Y7	Z7	X8	Y8	Z8	X9	Y9	Z9	X10	Y10	Z10	X11	Y11	Z11	X12	Y12	Z12	X13	Y13	Z13	X14	Y14	Z14	X15	Y15	Z15	X16	Y16	Z16	X17	Y17	Z17	X18	Y18	Z18	X19	Y19	Z19	X20	Y20	Z20	X21	Y21	Z21	X22	Y22	Z22	X23	Y23	Z23	X24	Y24	Z24	X25	Y25	Z25	X26	Y26	Z26	X27	Y27	Z27	X28	Y28	Z28	X29	Y29	Z29	X30	Y30	Z30	X31	Y31	Z31	X32	Y32	Z32	X33	Y33	Z33	X34	Y34	Z34	X35	Y35	Z35	X36	Y36	Z36	X37	Y37	Z37	X38	Y38	Z38	X39	Y39	Z39	X40	Y40	Z40	X41	Y41	Z41	X42	Y42	Z42	X43	Y43	Z43	X44	Y44	Z44	X45	Y45	Z45	X46	Y46	Z46	X47	Y47	Z47	X48	Y48	Z48	X49	Y49	Z49
																																																																																																																																																				
1	0	-1101.54858	1656.24475	1401.32104	-1095.91528	1651.51855	1532.74463	-1232.73328	1597.37683	1407.8988	-1225.90393	1597.49402	1537.09448	-1228.14233	1446.95068	1465.72095	-1265.57361	1118.49951	1474.97668	-1117.27466	1369.61511	1470.83691	-1080.17712	1193.63623	1471.73938	-1304.03064	1279.45508	1548.75793	-1167.36035	1399.82922	1305.95593	-1218.84912	1208.7876	1234.87671	-1257.72351	1103.27185	1224.39355	-1276.52051	955.79614	1192.73206	-1235.85681	827.77411	1210.53809	-1305.70154	839.26495	1194.44568	-1286.66577	751.28558	1178.92871	-1166.16943	1404.46375	1629.72925	-1205.77136	1209.08228	1722.4436	-1195.78442	1087.49487	1736.67676	-1166.9657	970.23315	1749.29932	-1094.83521	840.3429	1706.41455	-1144.01172	835.51935	1754.83777	-1097.46631	764.55743	1750.2406	-1080.92517	963.19031	1373.68848	-1101.49597	955.42731	1591.87036	-1239.29773	990.81573	1385.7019	-1248.31873	987.56317	1553.63403	-1105.93774	656.22424	1288.96069	-1074.94495	497.37323	1308.93665	-1063.26135	241.41211	1301.26172	-1033.97424	70.1964	1336.20361	-1074.08728	53.62978	1380.51099	-886.86285	47.13778	1350.146	-1207.98999	626.87292	1638.41248	-1230.63843	501.67432	1621.85071	-1385.32214	280.43112	1628.96851	-1484.90625	120.15337	1593.67151	-1533.97363	112.12333	1551.79053	-1357.85596	35.716	1584.88245	-1200.86572	1693.84326	1461.90527	NaN	NaN	NaN	NaN	NaN	NaN	NaN	NaN	NaN	NaN	NaN	NaN	NaN	NaN	NaN	NaN	NaN	NaN	NaN	NaN	NaN	NaN	NaN	NaN	NaN	NaN	NaN
2	0.01	-1095.77844	1657.09827	1398.75073	-1090.28967	1652.80566	1530.17493	-1226.84033	1598.0022	1405.21155	-1220.29834	1598.47205	1534.37402	-1221.95691	1447.66418	1463.26965	-1258.75562	1119.21106	1472.86255	-1110.80078	1370.53589	1468.85571	-1073.177	1194.63184	1470.00525	-1297.68994	1279.9884	1546.37122	-1160.32104	1400.64758	1303.78613	-1211.15698	1209.35669	1233.02832	-1249.32312	1103.57654	1222.90063	-1268.46667	956.18488	1191.64185	-1228.09387	827.85962	1210.07324	-1297.93469	839.88794	1193.11426	-1278.81873	751.48627	1178.88794	-1160.43604	1405.53931	1627.60229	-1200.70386	1210.47473	1720.94849	-1190.07642	1088.40137	1734.37073	-1162.25208	971.2746	1747.12659	-1089.80994	840.82996	1704.75159	-1139.36011	836.24255	1752.91626	-1093.14343	765.09271	1748.67297	-1074.16248	963.94562	1371.71521	-1094.79138	956.33252	1590.12769	-1232.37231	991.71735	1383.52051	-1241.52673	988.07037	1551.37378	-1100.29749	656.8847	1286.82776	-1070.38965	497.73764	1307.11646	-1060.37683	241.72601	1300.02234	-1033.49182	70.02266	1335.90137	-1073.87866	53.79225	1379.97156	-886.62427	46.37962	1349.73279	-1200.25024	627.09698	1636.95142	-1222.02234	501.73325	1620.48901	-1379.83875	282.77954	1628.79883	-1481.62439	123.88994	1593.90295	-1531.82678	118.3997	1552.90503	-1357.27612	35.6475	1584.54834	-1195.25293	1694.68433	1458.95337	NaN	NaN	NaN	NaN	NaN	NaN	NaN	NaN	NaN	NaN	NaN	NaN	NaN	NaN	NaN	NaN	NaN	NaN	NaN	NaN	NaN	NaN	NaN	NaN	NaN	NaN	NaN
3	0.02	-1089.93555	1658.02893	1396.22302	-1084.71924	1654.06067	1527.69788	-1220.94043	1598.73047	1402.5575	-1214.70068	1599.53772	1531.72668	-1215.67358	1448.51367	1460.86841	-1251.97852	1119.99951	1470.63379	-1104.31055	1371.74072	1467.02686	-1066.41833	1195.77026	1468.27319	-1291.33167	1280.68262	1543.99475	-1153.27429	1401.5575	1301.60107	-1203.21057	1209.96118	1231.36096	-1242.38342	1104.40686	1221.20349	-1260.96753	956.87506	1190.51501	-1220.60913	828.67365	1210.92419	-1289.65454	840.30267	1192.02173	-1270.49207	751.75897	1178.86719	-1154.62097	1406.63428	1625.4884	-1195.05542	1211.62476	1718.89526	-1184.54016	1089.4082	1732.1167	-1156.59558	971.84668	1744.98926	-1084.79553	841.39716	1703.07703	-1134.65308	837.04559	1751.0022	-1088.76306	765.59314	1746.86877	-1067.38257	964.87848	1369.75024	-1088.38367	956.84686	1587.98816	-1225.46924	992.72394	1381.35522	-1234.8186	988.63684	1549.0896	-1094.45898	657.61389	1284.95508	-1065.95447	498.03683	1305.56067	-1057.64624	241.95392	1298.97571	-1033.05261	69.94177	1335.78674	-1073.8634	53.96146	1379.67712	-886.47888	45.7845	1350.31836	-1192.27795	627.44135	1635.59937	-1212.85193	501.75336	1619.11902	-1373.26038	285.01816	1628.26038	-1477.94067	128.01317	1594.078	-1528.00244	123.43691	1553.01953	-1356.1554	35.611	1584.28784	-1189.66956	1695.6145	1456.16284	NaN	NaN	NaN	NaN	NaN	NaN	NaN	NaN	NaN	NaN	NaN	NaN	NaN	NaN	NaN	NaN	NaN	NaN	NaN	NaN	NaN	NaN	NaN	NaN	NaN	NaN	NaN
4	0.03	-1084.04883	1658.93665	1393.75366	-1079.15137	1655.29089	1525.23645	-1214.96753	1599.41235	1399.95056	-1208.99158	1600.52502	1529.13599	-1209.32727	1449.4325	1458.52661	-1245.24915	1120.87109	1468.35034	-1097.81873	1372.91736	1465.02612	-1059.78906	1196.85718	1466.34241	-1284.91272	1281.5022	1541.60669	-1146.15247	1402.55701	1299.58191	-1195.5769	1210.75439	1229.49658	-1233.98035	1104.97363	1219.71387	-1252.16895	957.12811	1189.39893	-1212.30212	829.14911	1210.91833	-1281.02405	840.75928	1191.10962	-1261.52197	751.97931	1179.04065	-1148.73181	1407.70532	1623.36218	-1189.20117	1212.65637	1716.74438	-1178.89685	1090.39539	1729.85657	-1151.50745	972.86841	1742.99573	-1079.71533	841.99603	1701.43579	-1129.85828	837.85016	1749.04602	-1084.20935	766.23956	1745.25989	-1060.63	965.85791	1367.6582	-1081.83081	957.70447	1585.92029	-1218.62158	993.66119	1379.14844	-1228.0603	989.08551	1546.75562	-1088.65515	658.32086	1283.35571	-1061.7019	498.26614	1304.16077	-1055.08411	242.05142	1298.46118	-1032.51331	69.9645	1335.88403	-1073.66357	54.09804	1379.57288	-886.19147	45.47779	1351.5094	-1183.99719	627.74414	1634.16614	-1203.34607	501.81656	1617.95361	-1366.10254	287.26569	1627.7843	-1473.93726	132.30545	1594.12622	-1523.58911	128.6674	1552.93103	-1355.71948	36.05025	1583.92554	-1183.9635	1696.47314	1453.32849	NaN	NaN	NaN	NaN	NaN	NaN	NaN	NaN	NaN	NaN	NaN	NaN	NaN	NaN	NaN	NaN	NaN	NaN	NaN	NaN	NaN	NaN	NaN	NaN	NaN	NaN	NaN
5	0.04	-1078.27307	1659.8092	1391.37219	-1073.54456	1656.41138	1522.70544	-1209.04358	1600.06726	1397.36511	-1203.35156	1601.47131	1526.52466	-1202.98645	1450.31458	1456.23523	-1238.65063	1121.80969	1465.91846	-1091.58142	1373.81079	1463.0896	-1053.25757	1197.72766	1464.59753	-1278.5321	1282.35559	1539.13708	-1139.10986	1403.6405	1297.51563	-1188.04797	1211.58899	1227.59644	-1226.14404	1105.62244	1217.92261	-1244.74072	957.91553	1188.22766	-1203.29492	829.4541	1210.10815	-1272.31567	841.25403	1190.25598	-1252.36951	752.19568	1179.02466	-1142.80286	1408.7196	1621.22546	-1183.36816	1213.72729	1714.58118	-1173.26355	1091.47473	1727.6283	-1146.22021	973.79266	1740.84692	-1074.62012	842.67493	1699.7157	-1125.04858	838.74579	1747.10461	-1079.63184	766.87292	1743.51514	-1053.88489	966.9447	1365.49878	-1075.07605	958.66461	1583.66052	-1211.828	994.64099	1376.90906	-1221.35645	989.73065	1544.32007	-1082.9397	658.79871	1281.97107	-1057.61047	498.37976	1302.94507	-1052.57837	242.02872	1298.16321	-1031.79138	69.90534	1336.20178	-1073.37988	54.31396	1379.64392	-885.85101	45.15068	1352.5647	-1175.62305	628.22919	1632.75635	-1193.88538	502.12769	1617.01294	-1358.78198	289.71362	1627.26392	-1469.60242	136.92093	1593.95642	-1519.24451	134.68932	1552.97681	-1354.78894	36.38598	1583.58667	-1178.38489	1697.34265	1450.65942	NaN	NaN	NaN	NaN	NaN	NaN	NaN	NaN	NaN	NaN	NaN	NaN	NaN	NaN	NaN	NaN	NaN	NaN	NaN	NaN	NaN	NaN	NaN	NaN	NaN	NaN	NaN
6	0.05	-1072.37585	1660.82642	1389.01001	-1068.03882	1657.70825	1520.49585	-1203.07886	1600.64746	1394.87134	-1197.65601	1602.31494	1524.04907	-1196.7323	1451.13428	1453.93945	-1232.01953	1122.66895	1463.43457	-1085.25378	1374.84473	1461.07922	-1046.58398	1198.77405	1462.57678	-1272.17529	1283.15344	1536.57349	-1132.1261	1404.58972	1295.46582	-1180.86169	1212.55481	1225.40491	-1218.49463	1106.28564	1216.13953	-1235.08618	958.00793	1187.18774	-1194.58057	830.35736	1210.50537	-1262.93066	841.40314	1189.38306	-1242.84265	752.46863	1178.91284	-1136.89514	1409.72498	1619.07751	-1177.60474	1214.8064	1712.47107	-1167.60425	1092.46741	1725.36621	-1140.97192	974.77191	1738.84924	-1069.46887	843.37036	1697.96472	-1120.22351	839.58673	1745.15942	-1075.11206	767.61938	1741.82959	-1047.15417	967.9292	1363.34338	-1066.20007	960.23328	1581.79956	-1204.97778	995.43561	1374.58179	-1214.60522	990.43585	1541.94873	-1077.51196	659.07361	1280.67639	-1053.61304	498.37067	1301.7959	-1050.21082	241.92926	1298.05554	-1031.06274	69.86774	1336.66382	-1073.0614	54.50795	1379.9585	-885.52258	44.85424	1353.06714	-1167.16528	628.89319	1631.38025	-1184.35693	502.61084	1616.19348	-1351.47327	292.25754	1626.87451	-1464.8064	141.37637	1593.76465	-1514.26392	140.34082	1552.68384	-1353.84607	36.78028	1583.34521	-1172.78491	1698.08765	1448.04382	NaN	NaN	NaN	NaN	NaN	NaN	NaN	NaN	NaN	NaN	NaN	NaN	NaN	NaN	NaN	NaN	NaN	NaN	NaN	NaN	NaN	NaN	NaN	NaN	NaN	NaN	NaN
7	0.06	-1066.56677	1661.75012	1386.78003	-1062.3678	1658.76794	1518.2135	-1197.0874	1601.21326	1392.43958	-1191.89417	1603.03711	1521.66589	-1190.4585	1451.81543	1451.70825	-1225.31653	1123.49963	1460.84485	-1078.89771	1375.75134	1459.10156	-1039.81848	1199.79285	1460.52991	-1265.76367	1283.86768	1534.0127	-1125.30005	1405.64087	1293.44519	-1172.979	1213.26428	1223.46851	-1210.07129	1106.74451	1214.51831	-1226.48413	958.41077	1185.85681	-1185.05676	830.91852	1210.13428	-1253.37659	841.63312	1188.49951	-1233.18408	752.70319	1178.42029	-1130.91699	1410.62683	1616.9093	-1171.83618	1215.86768	1710.50964	-1162.03003	1093.44922	1723.13416	-1135.7854	975.69531	1736.83374	-1064.33496	844.02545	1696.33887	-1115.23657	840.31592	1743.32715	-1070.38245	768.26202	1740.12793	-1040.42639	968.74286	1361.08875	-1061.20654	961.0473	1579.14709	-1198.09607	996.19867	1372.30042	-1207.80518	991.11115	1539.55286	-1072.30737	659.25024	1279.43591	-1049.64697	498.30975	1300.71045	-1048.32996	241.7952	1298.07971	-1030.63269	69.92992	1337.073	-1072.78589	54.72594	1380.43518	-885.29242	44.39989	1353.15649	-1158.57898	629.62854	1630.09497	-1174.86145	503.19897	1615.60767	-1344.10144	294.88773	1626.45435	-1459.7467	145.80711	1593.55957	-1508.73047	145.86191	1552.17944	-1352.91357	37.20487	1583.22925	-1167.16663	1698.8103	1445.57922	NaN	NaN	NaN	NaN	NaN	NaN	NaN	NaN	NaN	NaN	NaN	NaN	NaN	NaN	NaN	NaN	NaN	NaN	NaN	NaN	NaN	NaN	NaN	NaN	NaN	NaN	NaN
8	0.07	-1060.67078	1662.57336	1384.60693	-1056.76038	1659.79126	1516.10046	-1191.08264	1601.81128	1390.15942	-1186.13647	1603.74854	1519.39758	-1184.24475	1452.48279	1449.45996	-1218.66797	1124.23914	1458.21899	-1072.37512	1376.76331	1457.04321	-1033.12659	1200.77747	1458.38123	-1259.38037	1284.48413	1531.38672	-1118.60254	1406.6438	1291.34509	-1165.15161	1213.91589	1221.51563	-1201.18652	1106.98474	1212.88171	-1216.42688	958.4184	1184.72473	-1175.17334	831.39209	1209.43481	-1243.45251	841.65027	1187.51123	-1222.53906	752.74774	1178.24512	-1125.03369	1411.41907	1614.71826	-1166.09668	1216.76379	1708.41504	-1156.24927	1094.2821	1720.98962	-1130.29822	976.47046	1734.86646	-1059.13611	844.67889	1694.6261	-1110.36621	841.07068	1741.40686	-1065.5946	768.77747	1738.39734	-1033.75854	969.41888	1358.73352	-1052.88513	961.98932	1576.88123	-1191.24951	996.80261	1369.93567	-1201.02283	991.83936	1537.20081	-1067.09082	659.2948	1278.24207	-1045.62598	498.17804	1299.61487	-1046.74365	241.6322	1297.99695	-1030.25122	69.97307	1337.38342	-1072.50195	54.85798	1380.80322	-885.03674	43.99135	1353.27881	-1149.93994	630.43872	1628.91711	-1165.45154	503.90256	1615.19836	-1336.78027	297.55283	1625.93298	-1454.53052	150.25877	1593.22339	-1503.01855	151.56534	1551.57068	-1351.72229	37.40273	1583.13464	-1161.46619	1699.50879	1443.16626	NaN	NaN	NaN	NaN	NaN	NaN	NaN	NaN	NaN	NaN	NaN	NaN	NaN	NaN	NaN	NaN	NaN	NaN	NaN	NaN	NaN	NaN	NaN	NaN	NaN	NaN	NaN
